<?xml version="1.0" encoding="UTF-8" standalone="no"?>
<svg width="14px" height="14px" viewBox="0 0 14 14" version="1.1" xmlns="http://www.w3.org/2000/svg" xmlns:xlink="http://www.w3.org/1999/xlink">
    <!-- Generator: Sketch 40.3 (33839) - http://www.bohemiancoding.com/sketch -->
    <title>icon-plus</title>
    <desc>Created with Sketch.</desc>
    <defs></defs>
    <g id="Symbols" stroke="none" stroke-width="1" fill="none" fill-rule="evenodd">
        <g id="icon-plus" transform="translate(-1.000000, -1.000000)" fill="#000000">
            <path d="M9.5,6.5 L9.5,2.49824524 C9.5,1.6752491 8.82842712,1 8,1 C7.16579723,1 6.5,1.67078724 6.5,2.49824524 L6.5,6.5 L2.49824524,6.5 C1.6752491,6.5 1,7.17157288 1,8 C1,8.83420277 1.67078724,9.5 2.49824524,9.5 L6.5,9.5 L6.5,13.5017548 C6.5,14.3247509 7.17157288,15 8,15 C8.83420277,15 9.5,14.3292128 9.5,13.5017548 L9.5,9.5 L13.5017548,9.5 C14.3247509,9.5 15,8.82842712 15,8 C15,7.16579723 14.3292128,6.5 13.5017548,6.5 L9.5,6.5 Z"></path>
        </g>
    </g>
</svg>